<?xml version='1.0' encoding='utf-8'?>
<svg xmlns="http://www.w3.org/2000/svg" clip-rule="evenodd" fill-rule="evenodd" stroke-linejoin="round" stroke-miterlimit="1.4142" version="1.1" viewBox="0 0 512 512"><path d="m370.81 482.1h-290.19c-37.407-12.104-63.32-34.543-66.509-77.41 2.223-9.7 4.176-19.631 4.821-30.674 3.476-9.58-3.165-7.326-0.527-16.455 2.173-5.284 18.626-27.057 22.843-40.966 2.997-9.884 7.957-19.496 11.155-30.279 1.146-3.862-1.255-15.409 0-19.244 1.954-5.967 8.443-9.581 10.489-15.592 8.221-15.971 12.805-30.743 17.728-44.965 2.624-7.581-1.062-16.177 0-24.884 3.215-8.022 13.951-13.028 17.389-20.843 3.496-7.947 8.115-18.283 11.121-26.144 2.178-5.694 3.627-10.386 4.305-17.101 3.092-7.818-2.129-15.144 0-20.369 2.963-7.276 10.617-12.556 13.924-19.338 6.285-12.889 10.375-24.749 17.396-35.896 3.863-6.132 8.511-8.696 16.4-12.036 10.94 2.22 21.78 2.765 32.427 0h228.14c38.414 6.285 42.587 33.351 28.482 71.508l-79.648 266.1c-11.491 31.071-18.397 38.637-51.571 39.342h-259.96c-26.691 2.867-4.129 42.613 29.383 37.215h274.34c16.074 0.137 26.007-7.559 28.952-24.17l87.867-289.91v-9.321c16.874 6.398 28.217 19.21 24.128 44.529-16.725 62.214-53.655 179.61-81.974 274.66-12.304 23.86-29.523 37.42-50.913 42.241zm-207.96-128.97c4.375-0.209 105.58 0.419 90.469 0.024-1.391-0.036 0.632-9.634 0-9.268-21.198 12.278 42.532-168.3 42.84-169.46 1.54-5.822-2.939-8.241-5.224-8.325-10.565-0.392-43.447-0.708-57.759 0-2.771 0.137-17.25 0.27-20.202 0.134 0.018-0.089 0.019-0.136 1e-3 -0.134-0.745 0.06-0.66 0.104-1e-3 0.134-0.304 1.484-5.402 14.763-5.002 14.628 44.682-15.111-29.981 171.79-42.252 163.03-2.587-1.847-1.924 8.664-2.87 9.244-0.149 7e-3 -0.186 0.015-0.102 0.024 0.036 4e-3 0.07-4e-3 0.102-0.024zm138.7-209.83c-19.569 0.24-37.197-0.018-55.371 0-4.791 4e-3 -10.09-3.976-8.668-8.783 5.746-19.43 8.133-25.7 15-47.372 1.767-5.577 5.367-8.292 8.668-8.297 20.675-0.025 37.664-0.084 55.371 0 3.82 0.019 7.138 1.523 6.09 6.663-4.271 20.953-9.157 30.965-15 52.775-0.926 3.457-2.452 4.969-6.09 5.014z"/></svg>